<svg width="370" height="244" viewBox="0 0 370 244" fill="none" xmlns="http://www.w3.org/2000/svg">
<path d="M259.895 7.413C273.319 0.795001 279.982 1.676 280.127 8.359C280.317 17.059 279.029 28.589 278.111 36.963C273.128 82.386 264.791 119.506 264.157 166.153C286.097 109.351 304.502 69.875 328.187 21.244C335.717 5.774 340.512 8.651 346.69 5.901C370.772 -4.814 371.674 1.768 368.527 14.851C356.841 63.403 326.987 216.227 322.413 239.758C321.085 246.565 313.698 243.681 311.769 241.018C303.199 229.168 293.544 228.982 294.629 221.099C299.999 181.866 319.339 83.433 324.379 60.236C298.66 112.932 272.009 178.802 258.326 216.15C255.419 224.081 250.138 223.5 246.846 217.696C242.216 209.546 233.236 205.384 231.753 195.753C227.051 165.125 237.123 106.75 238.526 69.817C224.532 110.159 201.036 188.487 190.744 223.874C186.488 238.517 172.362 236.127 176.117 221.856C191.759 162.467 225.443 57.431 240.032 19.658C243.459 10.784 252.438 11.089 259.895 7.413ZM174.6 0.115001C178.86 1.14 178.513 6.165 175.91 13.027C168.228 33.274 157.575 59.874 145.394 91.239C153.052 90.365 157.205 90.069 157.205 90.069C168.199 88.711 170.246 94.208 167.151 100.059C164.685 104.723 161.715 101.613 151.427 116.949C145.631 125.591 136.168 127.873 130.912 129.025C118.25 162.548 104.682 199.941 91.497 239.795C89.578 245.599 83.973 244.327 82.288 241.969C76.096 233.322 71.53 233.036 66.73 226.042C66.153 224.91 65.024 223.37 65.703 220.594C69.233 206.169 78.604 176.527 92.859 137.503C74.901 141.395 55.472 145.579 47.451 147.443C37.825 172.888 28.437 198.41 19.543 223.623C14.025 239.263 -0.337004 236.24 4.703 221.458C12.731 197.91 21.593 173.454 30.479 149.738C20.531 148.675 17.166 141.65 11.606 135.78C9.459 133.513 4.778 133.832 2.486 130.653C-1.637 124.942 -1.226 122.405 8.296 119.657C20.7151 116.071 33.2056 112.738 45.76 109.659C61.85 68.135 76.39 32.515 84.14 13.508C90.114 -1.138 105.514 0.226001 99.664 14.674C87.775 44.037 75.585 74.541 63.554 105.473C78.3909 102.131 93.3119 99.1729 108.302 96.603C119.291 68.3897 130.833 40.395 142.922 12.635C143.767 10.698 146.232 7.957 148.8 7.517C156.892 6.132 170.051 -0.980999 174.6 0.115001ZM147.048 190.192C148.313 189.419 149.572 188.477 150.815 187.442C149.858 184.625 148.918 181.802 147.995 178.974C147.058 180.172 146.14 181.384 145.243 182.612C139.857 190.008 143.046 192.64 147.048 190.192ZM154.215 155.127C160.885 147.597 147.699 144.446 150.735 155.963C150.905 156.613 151.117 157.376 151.355 158.217C152.33 157.208 153.284 156.177 154.215 155.127ZM161.156 177.822C167.758 172.101 174.064 177.776 167.536 187.45C166.132 189.53 164.546 191.768 162.807 193.972C163.491 195.942 164.206 197.902 164.953 199.849C168.328 208.503 159.465 210.673 156.608 203.505C156.358 202.879 156.098 202.208 155.83 201.51C150.443 206.282 144.212 209.287 137.555 207.217C126.601 203.81 123.815 188.387 134.041 176.506C138.144 171.739 141.232 168.432 143.812 165.79C143.179 163.741 142.573 161.684 141.993 159.62C140.665 154.81 139.466 149.204 144.28 143.49C153.307 132.778 174.251 142.287 163.657 158.779C161.105 162.751 158.122 166.503 155.01 170.306C156.078 173.705 157.165 177.099 158.27 180.486C159.21 179.574 160.172 178.686 161.156 177.822Z" fill="#E50010"/>
</svg>
